<svg xmlns="http://www.w3.org/2000/svg" width="300" height="210" viewBox="0 0 300 210" role="img" aria-label="animated --animate clingon">
  <rect width="300" height="210" rx="8" fill="#f6f8fa"/>
  <rect x="20" y="18" width="260" height="146" rx="6" fill="#ffffff" stroke="#d0d7de"/>
  <g opacity="0">
    <animate attributeName="opacity" values="1;1;1;1;1;1;1;1;1;1;0;1;1;1;1;1;0;0;0;0;1;1;0;0;1;0;1;0;0;1;1;1;1;1;1;1;1;1;1;1;1;1;1;1;0;0;0;1;1;1;1;1;1;1;1;1;1;1;1;1;1;1;1;1;1" keyTimes="0.0000;0.0156;0.0313;0.0469;0.0625;0.0781;0.0938;0.1094;0.1250;0.1406;0.1563;0.1719;0.1875;0.2031;0.2188;0.2344;0.2500;0.2656;0.2813;0.2969;0.3125;0.3281;0.3438;0.3594;0.3750;0.3906;0.4063;0.4219;0.4375;0.4531;0.4688;0.4844;0.5000;0.5156;0.5313;0.5469;0.5625;0.5781;0.5938;0.6094;0.6250;0.6406;0.6563;0.6719;0.6875;0.7031;0.7188;0.7344;0.7500;0.7656;0.7813;0.7969;0.8125;0.8281;0.8438;0.8594;0.8750;0.8906;0.9063;0.9219;0.9375;0.9531;0.9688;0.9844;1.0000" dur="8.00s" repeatCount="indefinite" calcMode="discrete"/>
    <rect x="126" y="43" width="16" height="16" fill="#c4ffd9"/>
    <rect x="110" y="59" width="16" height="16" fill="#9f4cee"/>
    <rect x="126" y="59" width="16" height="16" fill="#9f4cee"/>
    <rect x="142" y="59" width="16" height="16" fill="#9f4cee"/>
    <rect x="158" y="59" width="16" height="16" fill="#9f4cee"/>
    <rect x="174" y="59" width="16" height="16" fill="#9f4cee"/>
    <rect x="94" y="75" width="16" height="16" fill="#9f4cee"/>
    <rect x="110" y="75" width="16" height="16" fill="#0e0218"/>
    <rect x="126" y="75" width="16" height="16" fill="#9f4cee"/>
    <rect x="142" y="75" width="16" height="16" fill="#9f4cee"/>
    <rect x="158" y="75" width="16" height="16" fill="#9f4cee"/>
    <rect x="174" y="75" width="16" height="16" fill="#0e0218"/>
    <rect x="190" y="75" width="16" height="16" fill="#9f4cee"/>
    <rect x="94" y="91" width="16" height="16" fill="#9f4cee"/>
    <rect x="110" y="91" width="16" height="16" fill="#9f4cee"/>
    <rect x="126" y="91" width="16" height="16" fill="#9f4cee"/>
    <rect x="142" y="91" width="16" height="16" fill="#9f4cee"/>
    <rect x="158" y="91" width="16" height="16" fill="#9f4cee"/>
    <rect x="174" y="91" width="16" height="16" fill="#9f4cee"/>
    <rect x="190" y="91" width="16" height="16" fill="#9f4cee"/>
    <rect x="94" y="107" width="16" height="16" fill="#9f4cee"/>
    <rect x="110" y="107" width="16" height="16" fill="#9f4cee"/>
    <rect x="126" y="107" width="8" height="16" fill="#c4ffd9"/>
    <rect x="142" y="107" width="16" height="16" fill="#9f4cee"/>
    <rect x="166" y="107" width="8" height="16" fill="#c4ffd9"/>
    <rect x="174" y="107" width="16" height="16" fill="#9f4cee"/>
    <rect x="190" y="107" width="16" height="16" fill="#9f4cee"/>
    <rect x="110" y="123" width="8" height="16" fill="#0e0218"/>
    <rect x="182" y="123" width="8" height="16" fill="#0e0218"/>
  </g>
  <g opacity="0">
    <animate attributeName="opacity" values="0;0;0;0;0;0;0;0;0;0;1;0;0;0;0;0;0;0;0;0;0;0;0;0;0;0;0;1;1;0;0;0;0;0;0;0;0;0;0;0;0;0;0;0;0;0;1;0;0;0;0;0;0;0;0;0;0;0;0;0;0;0;0;0;0" keyTimes="0.0000;0.0156;0.0313;0.0469;0.0625;0.0781;0.0938;0.1094;0.1250;0.1406;0.1563;0.1719;0.1875;0.2031;0.2188;0.2344;0.2500;0.2656;0.2813;0.2969;0.3125;0.3281;0.3438;0.3594;0.3750;0.3906;0.4063;0.4219;0.4375;0.4531;0.4688;0.4844;0.5000;0.5156;0.5313;0.5469;0.5625;0.5781;0.5938;0.6094;0.6250;0.6406;0.6563;0.6719;0.6875;0.7031;0.7188;0.7344;0.7500;0.7656;0.7813;0.7969;0.8125;0.8281;0.8438;0.8594;0.8750;0.8906;0.9063;0.9219;0.9375;0.9531;0.9688;0.9844;1.0000" dur="8.00s" repeatCount="indefinite" calcMode="discrete"/>
    <rect x="126" y="59" width="16" height="16" fill="#c4ffd9"/>
    <rect x="110" y="75" width="16" height="16" fill="#9f4cee"/>
    <rect x="126" y="75" width="16" height="16" fill="#9f4cee"/>
    <rect x="142" y="75" width="16" height="16" fill="#9f4cee"/>
    <rect x="158" y="75" width="16" height="16" fill="#9f4cee"/>
    <rect x="174" y="75" width="16" height="16" fill="#9f4cee"/>
    <rect x="94" y="91" width="16" height="16" fill="#9f4cee"/>
    <rect x="110" y="91" width="16" height="16" fill="#0e0218"/>
    <rect x="126" y="91" width="16" height="16" fill="#9f4cee"/>
    <rect x="142" y="91" width="16" height="16" fill="#9f4cee"/>
    <rect x="158" y="91" width="16" height="16" fill="#9f4cee"/>
    <rect x="174" y="91" width="16" height="16" fill="#0e0218"/>
    <rect x="190" y="91" width="16" height="16" fill="#9f4cee"/>
    <rect x="94" y="107" width="16" height="16" fill="#9f4cee"/>
    <rect x="110" y="107" width="16" height="16" fill="#9f4cee"/>
    <rect x="126" y="107" width="16" height="16" fill="#9f4cee"/>
    <rect x="142" y="107" width="16" height="16" fill="#9f4cee"/>
    <rect x="158" y="107" width="16" height="16" fill="#9f4cee"/>
    <rect x="174" y="107" width="16" height="16" fill="#9f4cee"/>
    <rect x="190" y="107" width="16" height="16" fill="#9f4cee"/>
    <rect x="94" y="123" width="16" height="16" fill="#9f4cee"/>
    <rect x="110" y="123" width="16" height="16" fill="#9f4cee"/>
    <rect x="126" y="123" width="8" height="16" fill="#c4ffd9"/>
    <rect x="142" y="123" width="16" height="16" fill="#9f4cee"/>
    <rect x="166" y="123" width="8" height="16" fill="#c4ffd9"/>
    <rect x="174" y="123" width="16" height="16" fill="#9f4cee"/>
    <rect x="190" y="123" width="16" height="16" fill="#9f4cee"/>
  </g>
  <g opacity="0">
    <animate attributeName="opacity" values="0;0;0;0;0;0;0;0;0;0;0;0;0;0;0;0;1;1;0;0;0;0;0;0;0;0;0;0;0;0;0;0;0;0;0;0;0;0;0;0;0;0;0;0;1;1;0;0;0;0;0;0;0;0;0;0;0;0;0;0;0;0;0;0;0" keyTimes="0.0000;0.0156;0.0313;0.0469;0.0625;0.0781;0.0938;0.1094;0.1250;0.1406;0.1563;0.1719;0.1875;0.2031;0.2188;0.2344;0.2500;0.2656;0.2813;0.2969;0.3125;0.3281;0.3438;0.3594;0.3750;0.3906;0.4063;0.4219;0.4375;0.4531;0.4688;0.4844;0.5000;0.5156;0.5313;0.5469;0.5625;0.5781;0.5938;0.6094;0.6250;0.6406;0.6563;0.6719;0.6875;0.7031;0.7188;0.7344;0.7500;0.7656;0.7813;0.7969;0.8125;0.8281;0.8438;0.8594;0.8750;0.8906;0.9063;0.9219;0.9375;0.9531;0.9688;0.9844;1.0000" dur="8.00s" repeatCount="indefinite" calcMode="discrete"/>
    <rect x="126" y="43" width="16" height="16" fill="#c4ffd9"/>
    <rect x="110" y="59" width="16" height="16" fill="#9f4cee"/>
    <rect x="126" y="59" width="16" height="16" fill="#9f4cee"/>
    <rect x="142" y="59" width="16" height="16" fill="#9f4cee"/>
    <rect x="158" y="59" width="16" height="16" fill="#9f4cee"/>
    <rect x="174" y="59" width="16" height="16" fill="#9f4cee"/>
    <rect x="94" y="75" width="16" height="16" fill="#9f4cee"/>
    <rect x="110" y="75" width="16" height="16" fill="#9f4cee"/>
    <rect x="126" y="75" width="16" height="16" fill="#9f4cee"/>
    <rect x="142" y="75" width="16" height="16" fill="#9f4cee"/>
    <rect x="158" y="75" width="16" height="16" fill="#9f4cee"/>
    <rect x="174" y="75" width="16" height="16" fill="#9f4cee"/>
    <rect x="190" y="75" width="16" height="16" fill="#9f4cee"/>
    <rect x="94" y="91" width="16" height="16" fill="#9f4cee"/>
    <rect x="110" y="91" width="16" height="16" fill="#9f4cee"/>
    <rect x="126" y="91" width="16" height="16" fill="#9f4cee"/>
    <rect x="142" y="91" width="16" height="16" fill="#9f4cee"/>
    <rect x="158" y="91" width="16" height="16" fill="#9f4cee"/>
    <rect x="174" y="91" width="16" height="16" fill="#9f4cee"/>
    <rect x="190" y="91" width="16" height="16" fill="#9f4cee"/>
    <rect x="94" y="107" width="16" height="16" fill="#9f4cee"/>
    <rect x="110" y="107" width="16" height="16" fill="#9f4cee"/>
    <rect x="126" y="107" width="8" height="16" fill="#c4ffd9"/>
    <rect x="142" y="107" width="16" height="16" fill="#9f4cee"/>
    <rect x="166" y="107" width="8" height="16" fill="#c4ffd9"/>
    <rect x="174" y="107" width="16" height="16" fill="#9f4cee"/>
    <rect x="190" y="107" width="16" height="16" fill="#9f4cee"/>
    <rect x="110" y="123" width="8" height="16" fill="#0e0218"/>
    <rect x="182" y="123" width="8" height="16" fill="#0e0218"/>
  </g>
  <g opacity="0">
    <animate attributeName="opacity" values="0;0;0;0;0;0;0;0;0;0;0;0;0;0;0;0;0;0;1;1;0;0;0;0;0;0;0;0;0;0;0;0;0;0;0;0;0;0;0;0;0;0;0;0;0;0;0;0;0;0;0;0;0;0;0;0;0;0;0;0;0;0;0;0;0" keyTimes="0.0000;0.0156;0.0313;0.0469;0.0625;0.0781;0.0938;0.1094;0.1250;0.1406;0.1563;0.1719;0.1875;0.2031;0.2188;0.2344;0.2500;0.2656;0.2813;0.2969;0.3125;0.3281;0.3438;0.3594;0.3750;0.3906;0.4063;0.4219;0.4375;0.4531;0.4688;0.4844;0.5000;0.5156;0.5313;0.5469;0.5625;0.5781;0.5938;0.6094;0.6250;0.6406;0.6563;0.6719;0.6875;0.7031;0.7188;0.7344;0.7500;0.7656;0.7813;0.7969;0.8125;0.8281;0.8438;0.8594;0.8750;0.8906;0.9063;0.9219;0.9375;0.9531;0.9688;0.9844;1.0000" dur="8.00s" repeatCount="indefinite" calcMode="discrete"/>
    <rect x="126" y="43" width="16" height="16" fill="#c4ffd9"/>
    <rect x="110" y="59" width="16" height="16" fill="#9f4cee"/>
    <rect x="126" y="59" width="16" height="16" fill="#9f4cee"/>
    <rect x="142" y="59" width="16" height="16" fill="#9f4cee"/>
    <rect x="158" y="59" width="16" height="16" fill="#9f4cee"/>
    <rect x="174" y="59" width="16" height="16" fill="#9f4cee"/>
    <rect x="94" y="75" width="16" height="16" fill="#9f4cee"/>
    <rect x="110" y="75" width="16" height="16" fill="#0e0218"/>
    <rect x="126" y="75" width="16" height="16" fill="#9f4cee"/>
    <rect x="142" y="75" width="16" height="16" fill="#9f4cee"/>
    <rect x="158" y="75" width="16" height="16" fill="#9f4cee"/>
    <rect x="174" y="75" width="16" height="16" fill="#0e0218"/>
    <rect x="190" y="75" width="16" height="16" fill="#9f4cee"/>
    <rect x="94" y="91" width="16" height="16" fill="#9f4cee"/>
    <rect x="110" y="91" width="16" height="16" fill="#9f4cee"/>
    <rect x="126" y="91" width="16" height="16" fill="#9f4cee"/>
    <rect x="142" y="91" width="16" height="16" fill="#9f4cee"/>
    <rect x="158" y="91" width="16" height="16" fill="#9f4cee"/>
    <rect x="174" y="91" width="16" height="16" fill="#9f4cee"/>
    <rect x="190" y="91" width="16" height="16" fill="#9f4cee"/>
    <rect x="94" y="107" width="16" height="16" fill="#9f4cee"/>
    <rect x="110" y="107" width="16" height="16" fill="#9f4cee"/>
    <rect x="126" y="107" width="8" height="16" fill="#c4ffd9"/>
    <rect x="142" y="107" width="16" height="16" fill="#9f4cee"/>
    <rect x="166" y="107" width="8" height="16" fill="#c4ffd9"/>
    <rect x="174" y="107" width="16" height="16" fill="#9f4cee"/>
    <rect x="190" y="107" width="16" height="16" fill="#9f4cee"/>
    <rect x="182" y="123" width="8" height="16" fill="#0e0218"/>
  </g>
  <g opacity="0">
    <animate attributeName="opacity" values="0;0;0;0;0;0;0;0;0;0;0;0;0;0;0;0;0;0;0;0;0;0;1;0;0;0;0;0;0;0;0;0;0;0;0;0;0;0;0;0;0;0;0;0;0;0;0;0;0;0;0;0;0;0;0;0;0;0;0;0;0;0;0;0;0" keyTimes="0.0000;0.0156;0.0313;0.0469;0.0625;0.0781;0.0938;0.1094;0.1250;0.1406;0.1563;0.1719;0.1875;0.2031;0.2188;0.2344;0.2500;0.2656;0.2813;0.2969;0.3125;0.3281;0.3438;0.3594;0.3750;0.3906;0.4063;0.4219;0.4375;0.4531;0.4688;0.4844;0.5000;0.5156;0.5313;0.5469;0.5625;0.5781;0.5938;0.6094;0.6250;0.6406;0.6563;0.6719;0.6875;0.7031;0.7188;0.7344;0.7500;0.7656;0.7813;0.7969;0.8125;0.8281;0.8438;0.8594;0.8750;0.8906;0.9063;0.9219;0.9375;0.9531;0.9688;0.9844;1.0000" dur="8.00s" repeatCount="indefinite" calcMode="discrete"/>
    <rect x="126" y="43" width="16" height="16" fill="#c4ffd9"/>
    <rect x="110" y="59" width="16" height="16" fill="#9f4cee"/>
    <rect x="126" y="59" width="16" height="16" fill="#9f4cee"/>
    <rect x="142" y="59" width="16" height="16" fill="#9f4cee"/>
    <rect x="158" y="59" width="16" height="16" fill="#9f4cee"/>
    <rect x="174" y="59" width="16" height="16" fill="#9f4cee"/>
    <rect x="94" y="75" width="16" height="16" fill="#9f4cee"/>
    <rect x="110" y="75" width="16" height="16" fill="#0e0218"/>
    <rect x="126" y="75" width="16" height="16" fill="#9f4cee"/>
    <rect x="142" y="75" width="16" height="16" fill="#9f4cee"/>
    <rect x="158" y="75" width="16" height="16" fill="#9f4cee"/>
    <rect x="174" y="75" width="16" height="16" fill="#0e0218"/>
    <rect x="190" y="75" width="16" height="16" fill="#9f4cee"/>
    <rect x="94" y="91" width="16" height="16" fill="#9f4cee"/>
    <rect x="110" y="91" width="16" height="16" fill="#9f4cee"/>
    <rect x="126" y="91" width="16" height="16" fill="#9f4cee"/>
    <rect x="142" y="91" width="16" height="16" fill="#9f4cee"/>
    <rect x="158" y="91" width="16" height="16" fill="#9f4cee"/>
    <rect x="174" y="91" width="16" height="16" fill="#9f4cee"/>
    <rect x="190" y="91" width="16" height="16" fill="#9f4cee"/>
    <rect x="94" y="107" width="16" height="16" fill="#9f4cee"/>
    <rect x="110" y="107" width="16" height="16" fill="#9f4cee"/>
    <rect x="126" y="107" width="8" height="16" fill="#c4ffd9"/>
    <rect x="142" y="107" width="16" height="16" fill="#9f4cee"/>
    <rect x="166" y="107" width="8" height="16" fill="#c4ffd9"/>
    <rect x="174" y="107" width="16" height="16" fill="#9f4cee"/>
    <rect x="190" y="107" width="16" height="16" fill="#9f4cee"/>
    <rect x="110" y="123" width="8" height="16" fill="#0e0218"/>
  </g>
  <g opacity="0">
    <animate attributeName="opacity" values="0;0;0;0;0;0;0;0;0;0;0;0;0;0;0;0;0;0;0;0;0;0;0;1;0;0;0;0;0;0;0;0;0;0;0;0;0;0;0;0;0;0;0;0;0;0;0;0;0;0;0;0;0;0;0;0;0;0;0;0;0;0;0;0;0" keyTimes="0.0000;0.0156;0.0313;0.0469;0.0625;0.0781;0.0938;0.1094;0.1250;0.1406;0.1563;0.1719;0.1875;0.2031;0.2188;0.2344;0.2500;0.2656;0.2813;0.2969;0.3125;0.3281;0.3438;0.3594;0.3750;0.3906;0.4063;0.4219;0.4375;0.4531;0.4688;0.4844;0.5000;0.5156;0.5313;0.5469;0.5625;0.5781;0.5938;0.6094;0.6250;0.6406;0.6563;0.6719;0.6875;0.7031;0.7188;0.7344;0.7500;0.7656;0.7813;0.7969;0.8125;0.8281;0.8438;0.8594;0.8750;0.8906;0.9063;0.9219;0.9375;0.9531;0.9688;0.9844;1.0000" dur="8.00s" repeatCount="indefinite" calcMode="discrete"/>
    <rect x="126" y="43" width="16" height="16" fill="#c4ffd9"/>
    <rect x="110" y="59" width="16" height="16" fill="#9f4cee"/>
    <rect x="126" y="59" width="16" height="16" fill="#9f4cee"/>
    <rect x="142" y="59" width="16" height="16" fill="#9f4cee"/>
    <rect x="158" y="59" width="16" height="16" fill="#9f4cee"/>
    <rect x="174" y="59" width="16" height="16" fill="#9f4cee"/>
    <rect x="94" y="75" width="16" height="16" fill="#9f4cee"/>
    <rect x="110" y="75" width="16" height="16" fill="#0e0218"/>
    <rect x="126" y="75" width="16" height="16" fill="#9f4cee"/>
    <rect x="142" y="75" width="16" height="16" fill="#9f4cee"/>
    <rect x="158" y="75" width="16" height="16" fill="#9f4cee"/>
    <rect x="174" y="75" width="16" height="16" fill="#0e0218"/>
    <rect x="190" y="75" width="16" height="16" fill="#9f4cee"/>
    <rect x="94" y="91" width="16" height="16" fill="#9f4cee"/>
    <rect x="110" y="91" width="16" height="16" fill="#9f4cee"/>
    <rect x="126" y="91" width="16" height="16" fill="#9f4cee"/>
    <rect x="142" y="91" width="16" height="16" fill="#9f4cee"/>
    <rect x="158" y="91" width="16" height="16" fill="#9f4cee"/>
    <rect x="174" y="91" width="16" height="16" fill="#9f4cee"/>
    <rect x="190" y="91" width="16" height="16" fill="#9f4cee"/>
    <rect x="94" y="107" width="16" height="16" fill="#9f4cee"/>
    <rect x="110" y="107" width="16" height="16" fill="#9f4cee"/>
    <rect x="126" y="107" width="8" height="16" fill="#c4ffd9"/>
    <rect x="142" y="107" width="16" height="16" fill="#9f4cee"/>
    <rect x="166" y="107" width="8" height="16" fill="#c4ffd9"/>
    <rect x="174" y="107" width="16" height="16" fill="#9f4cee"/>
    <rect x="190" y="107" width="16" height="16" fill="#9f4cee"/>
    <rect x="118" y="123" width="8" height="16" fill="#0e0218"/>
  </g>
  <g opacity="0">
    <animate attributeName="opacity" values="0;0;0;0;0;0;0;0;0;0;0;0;0;0;0;0;0;0;0;0;0;0;0;0;0;1;0;0;0;0;0;0;0;0;0;0;0;0;0;0;0;0;0;0;0;0;0;0;0;0;0;0;0;0;0;0;0;0;0;0;0;0;0;0;0" keyTimes="0.0000;0.0156;0.0313;0.0469;0.0625;0.0781;0.0938;0.1094;0.1250;0.1406;0.1563;0.1719;0.1875;0.2031;0.2188;0.2344;0.2500;0.2656;0.2813;0.2969;0.3125;0.3281;0.3438;0.3594;0.3750;0.3906;0.4063;0.4219;0.4375;0.4531;0.4688;0.4844;0.5000;0.5156;0.5313;0.5469;0.5625;0.5781;0.5938;0.6094;0.6250;0.6406;0.6563;0.6719;0.6875;0.7031;0.7188;0.7344;0.7500;0.7656;0.7813;0.7969;0.8125;0.8281;0.8438;0.8594;0.8750;0.8906;0.9063;0.9219;0.9375;0.9531;0.9688;0.9844;1.0000" dur="8.00s" repeatCount="indefinite" calcMode="discrete"/>
    <rect x="126" y="43" width="16" height="16" fill="#c4ffd9"/>
    <rect x="110" y="59" width="16" height="16" fill="#9f4cee"/>
    <rect x="126" y="59" width="16" height="16" fill="#9f4cee"/>
    <rect x="142" y="59" width="16" height="16" fill="#9f4cee"/>
    <rect x="158" y="59" width="16" height="16" fill="#9f4cee"/>
    <rect x="174" y="59" width="16" height="16" fill="#9f4cee"/>
    <rect x="94" y="75" width="16" height="16" fill="#9f4cee"/>
    <rect x="110" y="75" width="16" height="16" fill="#9f4cee"/>
    <rect x="126" y="75" width="16" height="16" fill="#9f4cee"/>
    <rect x="142" y="75" width="16" height="16" fill="#9f4cee"/>
    <rect x="158" y="75" width="16" height="16" fill="#9f4cee"/>
    <rect x="174" y="75" width="16" height="16" fill="#9f4cee"/>
    <rect x="190" y="75" width="16" height="16" fill="#9f4cee"/>
    <rect x="94" y="91" width="16" height="16" fill="#9f4cee"/>
    <rect x="110" y="91" width="16" height="16" fill="#9f4cee"/>
    <rect x="126" y="91" width="16" height="16" fill="#9f4cee"/>
    <rect x="142" y="91" width="16" height="16" fill="#9f4cee"/>
    <rect x="158" y="91" width="16" height="16" fill="#9f4cee"/>
    <rect x="174" y="91" width="16" height="16" fill="#9f4cee"/>
    <rect x="190" y="91" width="16" height="16" fill="#9f4cee"/>
    <rect x="94" y="107" width="16" height="16" fill="#9f4cee"/>
    <rect x="110" y="107" width="16" height="16" fill="#9f4cee"/>
    <rect x="126" y="107" width="8" height="16" fill="#c4ffd9"/>
    <rect x="142" y="107" width="16" height="16" fill="#9f4cee"/>
    <rect x="166" y="107" width="8" height="16" fill="#c4ffd9"/>
    <rect x="174" y="107" width="16" height="16" fill="#9f4cee"/>
    <rect x="190" y="107" width="16" height="16" fill="#9f4cee"/>
    <rect x="118" y="123" width="8" height="16" fill="#0e0218"/>
    <rect x="174" y="123" width="8" height="16" fill="#0e0218"/>
  </g>
  <text x="150" y="194" text-anchor="middle" font-family="ui-monospace, SFMono-Regular, Menlo, Consolas, monospace" font-size="13" font-weight="400" fill="#24292f">--animate</text>
</svg>