<svg xmlns="http://www.w3.org/2000/svg" width="300" height="210" viewBox="0 0 300 210" role="img" aria-label="small clingon">
  <rect width="300" height="210" rx="8" fill="#f6f8fa"/>
  <rect x="20" y="18" width="260" height="146" rx="6" fill="#ffffff" stroke="#d0d7de"/>
  <rect x="142" y="51" width="8" height="16" fill="#ffde27"/>
  <rect x="126" y="67" width="16" height="16" fill="#794ae4"/>
  <rect x="142" y="67" width="16" height="16" fill="#794ae4"/>
  <rect x="158" y="67" width="16" height="16" fill="#794ae4"/>
  <rect x="110" y="83" width="8" height="16" fill="#794ae4"/>
  <rect x="118" y="83" width="8" height="16" fill="#3730a3"/>
  <rect x="126" y="83" width="16" height="16" fill="#794ae4"/>
  <rect x="142" y="83" width="16" height="16" fill="#794ae4"/>
  <rect x="158" y="83" width="16" height="16" fill="#794ae4"/>
  <rect x="174" y="83" width="8" height="16" fill="#3730a3"/>
  <rect x="182" y="83" width="8" height="16" fill="#794ae4"/>
  <rect x="126" y="99" width="16" height="16" fill="#ffde27"/>
  <rect x="142" y="99" width="16" height="16" fill="#794ae4"/>
  <rect x="158" y="99" width="16" height="16" fill="#ffde27"/>
  <rect x="110" y="115" width="16" height="16" fill="#3730a3"/>
  <rect x="126" y="115" width="16" height="16" fill="#3730a3"/>
  <rect x="158" y="115" width="16" height="16" fill="#3730a3"/>
  <rect x="174" y="115" width="16" height="16" fill="#3730a3"/>
  <text x="150" y="194" text-anchor="middle" font-family="ui-monospace, SFMono-Regular, Menlo, Consolas, monospace" font-size="13" font-weight="400" fill="#24292f">small</text>
</svg>