<svg xmlns="http://www.w3.org/2000/svg" width="300" height="210" viewBox="0 0 300 210" role="img" aria-label="tiny clingon">
  <rect width="300" height="210" rx="8" fill="#f6f8fa"/>
  <rect x="20" y="18" width="260" height="146" rx="6" fill="#1f2328" stroke="#0d1117"/>
  <rect x="118" y="59" width="16" height="16" fill="#c91565"/>
  <rect x="134" y="59" width="16" height="16" fill="#c91565"/>
  <rect x="150" y="59" width="16" height="16" fill="#c91565"/>
  <rect x="166" y="59" width="16" height="16" fill="#c91565"/>
  <rect x="118" y="75" width="16" height="16" fill="#c91565"/>
  <rect x="134" y="75" width="8" height="16" fill="#170410"/>
  <rect x="142" y="75" width="8" height="16" fill="#c91565"/>
  <rect x="150" y="75" width="8" height="16" fill="#c91565"/>
  <rect x="158" y="75" width="8" height="16" fill="#170410"/>
  <rect x="166" y="75" width="16" height="16" fill="#c91565"/>
  <rect x="118" y="91" width="16" height="16" fill="#c91565"/>
  <rect x="134" y="91" width="16" height="16" fill="#c91565"/>
  <rect x="150" y="91" width="16" height="16" fill="#170410"/>
  <rect x="166" y="91" width="16" height="16" fill="#c91565"/>
  <rect x="118" y="107" width="16" height="16" fill="#170410"/>
  <rect x="166" y="107" width="16" height="16" fill="#170410"/>
  <text x="150" y="194" text-anchor="middle" font-family="ui-monospace, SFMono-Regular, Menlo, Consolas, monospace" font-size="13" font-weight="400" fill="#24292f">tiny</text>
</svg>