<svg xmlns="http://www.w3.org/2000/svg" width="300" height="210" viewBox="0 0 300 210" role="img" aria-label="large clingon">
  <rect width="300" height="210" rx="8" fill="#f6f8fa"/>
  <rect x="20" y="18" width="260" height="146" rx="6" fill="#ffffff" stroke="#d0d7de"/>
  <rect x="142" y="27" width="8" height="16" fill="#ffde27"/>
  <rect x="94" y="43" width="16" height="16" fill="#794ae4"/>
  <rect x="110" y="43" width="16" height="16" fill="#794ae4"/>
  <rect x="126" y="43" width="16" height="16" fill="#794ae4"/>
  <rect x="142" y="43" width="8" height="16" fill="#ffde27"/>
  <rect x="158" y="43" width="16" height="16" fill="#794ae4"/>
  <rect x="174" y="43" width="16" height="16" fill="#794ae4"/>
  <rect x="190" y="43" width="16" height="16" fill="#794ae4"/>
  <rect x="78" y="59" width="16" height="16" fill="#794ae4"/>
  <rect x="94" y="59" width="16" height="16" fill="#794ae4"/>
  <rect x="110" y="59" width="16" height="16" fill="#794ae4"/>
  <rect x="126" y="59" width="16" height="16" fill="#794ae4"/>
  <rect x="142" y="59" width="16" height="16" fill="#794ae4"/>
  <rect x="158" y="59" width="16" height="16" fill="#794ae4"/>
  <rect x="174" y="59" width="16" height="16" fill="#794ae4"/>
  <rect x="190" y="59" width="16" height="16" fill="#794ae4"/>
  <rect x="206" y="59" width="16" height="16" fill="#794ae4"/>
  <rect x="78" y="75" width="16" height="16" fill="#794ae4"/>
  <rect x="94" y="75" width="16" height="16" fill="#794ae4"/>
  <rect x="110" y="75" width="16" height="16" fill="#ffde27"/>
  <rect x="126" y="75" width="16" height="16" fill="#794ae4"/>
  <rect x="142" y="75" width="16" height="16" fill="#794ae4"/>
  <rect x="158" y="75" width="16" height="16" fill="#794ae4"/>
  <rect x="174" y="75" width="16" height="16" fill="#ffde27"/>
  <rect x="190" y="75" width="16" height="16" fill="#794ae4"/>
  <rect x="206" y="75" width="16" height="16" fill="#794ae4"/>
  <rect x="62" y="91" width="16" height="16" fill="#794ae4"/>
  <rect x="78" y="91" width="8" height="16" fill="#3730a3"/>
  <rect x="94" y="91" width="16" height="16" fill="#794ae4"/>
  <rect x="110" y="91" width="16" height="16" fill="#794ae4"/>
  <rect x="126" y="91" width="16" height="16" fill="#3730a3"/>
  <rect x="142" y="91" width="16" height="16" fill="#794ae4"/>
  <rect x="158" y="91" width="16" height="16" fill="#3730a3"/>
  <rect x="174" y="91" width="16" height="16" fill="#794ae4"/>
  <rect x="190" y="91" width="16" height="16" fill="#794ae4"/>
  <rect x="214" y="91" width="8" height="16" fill="#3730a3"/>
  <rect x="222" y="91" width="16" height="16" fill="#794ae4"/>
  <rect x="78" y="107" width="16" height="16" fill="#794ae4"/>
  <rect x="94" y="107" width="16" height="16" fill="#794ae4"/>
  <rect x="110" y="107" width="16" height="16" fill="#794ae4"/>
  <rect x="126" y="107" width="16" height="16" fill="#794ae4"/>
  <rect x="142" y="107" width="16" height="16" fill="#794ae4"/>
  <rect x="158" y="107" width="16" height="16" fill="#794ae4"/>
  <rect x="174" y="107" width="16" height="16" fill="#794ae4"/>
  <rect x="190" y="107" width="16" height="16" fill="#794ae4"/>
  <rect x="206" y="107" width="16" height="16" fill="#794ae4"/>
  <rect x="78" y="123" width="8" height="16" fill="#3730a3"/>
  <rect x="94" y="123" width="8" height="16" fill="#3730a3"/>
  <rect x="198" y="123" width="8" height="16" fill="#3730a3"/>
  <rect x="214" y="123" width="8" height="16" fill="#3730a3"/>
  <text x="150" y="194" text-anchor="middle" font-family="ui-monospace, SFMono-Regular, Menlo, Consolas, monospace" font-size="13" font-weight="400" fill="#24292f">large</text>
</svg>