<svg xmlns="http://www.w3.org/2000/svg" width="260" height="210" viewBox="0 0 260 210" role="img" aria-label="small orlando-reginald-morris-junior clingon">
  <rect width="260" height="210" rx="8" fill="#f6f8fa"/>
  <rect x="20" y="18" width="220" height="150" rx="6" fill="#ffffff" stroke="#d0d7de"/>
  <rect x="120" y="33" width="20" height="20" fill="#ffde27"/>
  <rect x="100" y="53" width="20" height="20" fill="#794ae4"/>
  <rect x="120" y="53" width="20" height="20" fill="#794ae4"/>
  <rect x="140" y="53" width="20" height="20" fill="#794ae4"/>
  <rect x="60" y="73" width="20" height="20" fill="#794ae4"/>
  <rect x="80" y="73" width="20" height="20" fill="#794ae4"/>
  <rect x="100" y="73" width="20" height="20" fill="#3730a3"/>
  <rect x="120" y="73" width="20" height="20" fill="#794ae4"/>
  <rect x="140" y="73" width="20" height="20" fill="#3730a3"/>
  <rect x="160" y="73" width="20" height="20" fill="#794ae4"/>
  <rect x="180" y="73" width="20" height="20" fill="#794ae4"/>
  <rect x="60" y="93" width="20" height="20" fill="#794ae4"/>
  <rect x="80" y="93" width="20" height="20" fill="#794ae4"/>
  <rect x="100" y="93" width="20" height="20" fill="#794ae4"/>
  <rect x="120" y="93" width="20" height="20" fill="#794ae4"/>
  <rect x="140" y="93" width="20" height="20" fill="#794ae4"/>
  <rect x="160" y="93" width="20" height="20" fill="#794ae4"/>
  <rect x="180" y="93" width="20" height="20" fill="#794ae4"/>
  <rect x="80" y="113" width="20" height="20" fill="#794ae4"/>
  <rect x="100" y="113" width="10" height="20" fill="#ffde27"/>
  <rect x="120" y="113" width="20" height="20" fill="#794ae4"/>
  <rect x="150" y="113" width="10" height="20" fill="#ffde27"/>
  <rect x="160" y="113" width="20" height="20" fill="#794ae4"/>
  <rect x="80" y="133" width="10" height="20" fill="#3730a3"/>
  <rect x="100" y="133" width="10" height="20" fill="#3730a3"/>
  <rect x="150" y="133" width="10" height="20" fill="#3730a3"/>
  <rect x="170" y="133" width="10" height="20" fill="#3730a3"/>
  <text x="130" y="194" text-anchor="middle" font-family="ui-monospace, SFMono-Regular, Menlo, Consolas, monospace" font-size="13" fill="#24292f">small</text>
</svg>
