<svg xmlns="http://www.w3.org/2000/svg" width="260" height="240" viewBox="0 0 260 240" role="img" aria-label="normal orlando-reginald-morris-junior clingon">
  <rect width="260" height="240" rx="8" fill="#f6f8fa"/>
  <rect x="20" y="18" width="220" height="174" rx="6" fill="#ffffff" stroke="#d0d7de"/>
  <rect x="120" y="30" width="10" height="20" fill="#ffde27"/>
  <rect x="80" y="50" width="20" height="20" fill="#794ae4"/>
  <rect x="100" y="50" width="20" height="20" fill="#794ae4"/>
  <rect x="120" y="50" width="10" height="20" fill="#ffde27"/>
  <rect x="140" y="50" width="20" height="20" fill="#794ae4"/>
  <rect x="160" y="50" width="20" height="20" fill="#794ae4"/>
  <rect x="80" y="70" width="20" height="20" fill="#794ae4"/>
  <rect x="100" y="70" width="20" height="20" fill="#794ae4"/>
  <rect x="120" y="70" width="20" height="20" fill="#794ae4"/>
  <rect x="140" y="70" width="20" height="20" fill="#794ae4"/>
  <rect x="160" y="70" width="20" height="20" fill="#794ae4"/>
  <rect x="60" y="90" width="20" height="20" fill="#794ae4"/>
  <rect x="80" y="90" width="20" height="20" fill="#794ae4"/>
  <rect x="100" y="90" width="20" height="20" fill="#794ae4"/>
  <rect x="120" y="90" width="20" height="20" fill="#794ae4"/>
  <rect x="140" y="90" width="20" height="20" fill="#794ae4"/>
  <rect x="160" y="90" width="20" height="20" fill="#794ae4"/>
  <rect x="180" y="90" width="20" height="20" fill="#794ae4"/>
  <rect x="40" y="110" width="20" height="20" fill="#794ae4"/>
  <rect x="60" y="110" width="20" height="20" fill="#794ae4"/>
  <rect x="80" y="110" width="20" height="20" fill="#3730a3"/>
  <rect x="100" y="110" width="20" height="20" fill="#794ae4"/>
  <rect x="120" y="110" width="20" height="20" fill="#794ae4"/>
  <rect x="140" y="110" width="20" height="20" fill="#794ae4"/>
  <rect x="160" y="110" width="20" height="20" fill="#794ae4"/>
  <rect x="180" y="110" width="20" height="20" fill="#3730a3"/>
  <rect x="200" y="110" width="20" height="20" fill="#794ae4"/>
  <rect x="40" y="130" width="10" height="20" fill="#3730a3"/>
  <rect x="60" y="130" width="20" height="20" fill="#794ae4"/>
  <rect x="80" y="130" width="20" height="20" fill="#794ae4"/>
  <rect x="100" y="130" width="20" height="20" fill="#794ae4"/>
  <rect x="120" y="130" width="20" height="20" fill="#3730a3"/>
  <rect x="140" y="130" width="20" height="20" fill="#794ae4"/>
  <rect x="160" y="130" width="20" height="20" fill="#3730a3"/>
  <rect x="180" y="130" width="20" height="20" fill="#794ae4"/>
  <rect x="200" y="130" width="10" height="20" fill="#3730a3"/>
  <rect x="60" y="150" width="20" height="20" fill="#794ae4"/>
  <rect x="80" y="150" width="20" height="20" fill="#794ae4"/>
  <rect x="100" y="150" width="20" height="20" fill="#794ae4"/>
  <rect x="120" y="150" width="20" height="20" fill="#794ae4"/>
  <rect x="140" y="150" width="20" height="20" fill="#794ae4"/>
  <rect x="160" y="150" width="20" height="20" fill="#794ae4"/>
  <rect x="180" y="150" width="20" height="20" fill="#794ae4"/>
  <rect x="60" y="170" width="10" height="14" fill="#3730a3"/>
  <rect x="80" y="170" width="10" height="14" fill="#3730a3"/>
  <rect x="180" y="170" width="10" height="14" fill="#3730a3"/>
  <rect x="200" y="170" width="10" height="14" fill="#3730a3"/>
  <text x="130" y="218" text-anchor="middle" font-family="ui-monospace, SFMono-Regular, Menlo, Consolas, monospace" font-size="13" fill="#24292f">normal</text>
</svg>
